<?xml version="1.0"?>
<svg width="860.13137" height="571.14799" xmlns="http://www.w3.org/2000/svg" xmlns:svg="http://www.w3.org/2000/svg" data-name="Layer 1">
 <g class="layer">
  <title>Layer 1</title>
  <path d="m605.67,324.95c-7.67,-12.68 -16.76,-26.22 -30.99,-30.37c-16.48,-4.79 -33.41,4.74 -47.77,14.14a1392.16,1392.16 0 0 0 -123.9,91.28l0.05,0.49q46.22,-3.18 92.45,-6.37c22.26,-1.54 45.29,-3.28 64.97,-13.82c7.46,-3.99 14.74,-9.33 23.2,-9.71c10.52,-0.46 19.68,6.88 26.88,14.55c42.61,45.37 54.94,114.76 102.74,154.62a1516.99,1516.99 0 0 0 -107.63,-214.81z" fill="#f2f2f2" id="svg_1" transform="translate(-169.93432 -164.42601)"/>
  <path d="m867.57,709.78c-4.71,-5.95 -6.64,-7.34 -11.28,-13.35q-56.77,-73.41 -106.71,-151.79q-33.93,-53.23 -64.48,-108.5q-14.55,-26.28 -28.3,-52.97q-10.67,-20.7 -20.87,-41.64c-1.94,-3.99 -3.83,-7.99 -5.71,-12.01c-4.43,-9.44 -8.77,-18.93 -13.44,-28.24c-5.32,-10.62 -11.79,-21.75 -21.55,-28.88a29.4,29.4 0 0 0 -15.32,-5.89c-7.95,-0.52 -15.28,2.76 -22.18,6.35c-50.43,26.3 -97.66,59.27 -140.37,96.8a730.78,730.78 0 0 0 -114.04,126.59c-1.01,1.44 -3.39,0.06 -2.37,-1.39q6.01,-8.5 12.26,-16.81a734.82,734.82 0 0 1 187.59,-174.99q18.25,-11.82 37.19,-22.54c6.36,-3.6 12.75,-7.16 19.25,-10.49c6.37,-3.28 13.14,-6.22 20.41,-6.33c24.77,-0.39 37.6,27.67 46.41,46.54q4.15,8.91 8.41,17.77q16.07,33.62 33.38,66.63q10.69,20.38 21.84,40.52q34.71,62.71 73.78,122.89c34.5,53.15 68.73,100.09 108.04,149.79c1.09,1.37 -0.85,3.33 -1.94,1.94z" fill="#e4e4e4" id="svg_2" transform="translate(-169.93432 -164.42601)"/>
  <path d="m414.92,355.8c-1.44,-1.6 -2.87,-3.2 -4.32,-4.81c-11.42,-12.63 -23.68,-25.12 -39.37,-32.36a57.11,57.11 0 0 0 -23.92,-5.55c-8.56,0.03 -16.93,2.28 -24.85,5.42c-3.74,1.5 -7.39,3.19 -11,5c-4.11,2.07 -8.16,4.28 -12.18,6.51q-11.33,6.27 -22.37,13.09q-21.96,13.57 -42.54,29.21q-10.67,8.12 -20.91,16.76q-9.51,8.03 -18.64,16.49c-1.3,1.21 -3.25,-0.74 -1.95,-1.94c1.61,-1.49 3.23,-2.98 4.85,-4.45q6.88,-6.21 13.98,-12.19q12.93,-10.92 26.54,-20.99q21.17,-15.68 43.79,-29.23q11.3,-6.76 22.92,-12.96c2.33,-1.25 4.7,-2.47 7.09,-3.62a113.12,113.12 0 0 1 16.87,-6.87a60.01,60.01 0 0 1 25.47,-2.5a66.33,66.33 0 0 1 23.51,8.13c15.4,8.61 27.35,21.92 38.97,34.91c1.17,1.32 -0.76,3.27 -1.94,1.95z" fill="#e4e4e4" id="svg_3" transform="translate(-169.93432 -164.42601)"/>
  <path d="m730.48,486.71l36.9,-13.5l18.32,-6.7c5.97,-2.18 11.93,-4.67 18.09,-6.23a28.54,28.54 0 0 1 16.38,0.21a37.74,37.74 0 0 1 12.77,7.92a103.64,103.64 0 0 1 10.47,11.18c3.99,4.8 7.92,9.64 11.87,14.47q24.44,29.89 48.56,60.04q24.13,30.15 47.92,60.56q23.86,30.48 47.39,61.21q2.88,3.77 5.76,7.54c1.06,1.38 3.45,0.02 2.37,-1.39q-23.7,-31.05 -47.73,-61.84q-24.09,-30.86 -48.52,-61.46q-24.42,-30.6 -49.18,-60.94q-6.16,-7.56 -12.35,-15.1c-3.48,-4.24 -6.92,-8.53 -10.74,-12.47c-7,-7.25 -15.75,-13.65 -26.23,-13.82c-6.16,-0.11 -12.12,1.85 -17.84,3.92c-6.17,2.23 -12.33,4.5 -18.49,6.76l-37.16,13.59l-9.29,3.4c-1.65,0.6 -0.94,3.26 0.73,2.65z" fill="#e4e4e4" id="svg_4" transform="translate(-169.93432 -164.42601)"/>
  <path d="m366.38,334.53c-18.76,-9.64 -42.77,-7.75 -60.01,4.29a855.85,855.85 0 0 1 97.37,22.72c-13.28,-7.78 -23.67,-19.98 -37.36,-27.01z" fill="#f2f2f2" id="svg_5" transform="translate(-169.93432 -164.42601)"/>
  <path d="m306.19,338.78l-3.61,2.94c1.22,-1.03 2.49,-1.99 3.79,-2.9c-0.06,-0.01 -0.12,-0.03 -0.18,-0.04z" fill="#f2f2f2" id="svg_6" transform="translate(-169.93432 -164.42601)"/>
  <path d="m831.55,486.85c-3.63,-4.43 -7.56,-9.06 -12.99,-10.85l-5.08,0.2a575.44,575.44 0 0 0 153.27,175.22q-67.6,-82.29 -135.2,-164.57z" fill="#f2f2f2" id="svg_7" transform="translate(-169.93432 -164.42601)"/>
  <path d="m516.08,450.37a37.48,37.48 0 0 0 14.93,20.96c2.83,1.92 6.16,3.76 7.13,7.03a8.38,8.38 0 0 1 -0.88,6.15a24.88,24.88 0 0 1 -3.86,5.04l-0.13,0.51c-7,-4.14 -13.66,-9.39 -17.53,-16.55s-4.4,-16.54 0.34,-23.14" fill="#f2f2f2" id="svg_8" transform="translate(-169.93432 -164.42601)"/>
  <path d="m749.08,653.37a37.48,37.48 0 0 0 14.93,20.96c2.83,1.92 6.16,3.76 7.13,7.03a8.38,8.38 0 0 1 -0.88,6.15a24.88,24.88 0 0 1 -3.86,5.04l-0.13,0.51c-7,-4.14 -13.66,-9.39 -17.53,-16.55s-4.4,-16.54 0.34,-23.14" fill="#f2f2f2" id="svg_9" transform="translate(-169.93432 -164.42601)"/>
  <path d="m284.08,639.37a37.48,37.48 0 0 0 14.93,20.96c2.83,1.92 6.16,3.76 7.13,7.03a8.38,8.38 0 0 1 -0.88,6.15a24.88,24.88 0 0 1 -3.86,5.04l-0.13,0.51c-7,-4.14 -13.66,-9.39 -17.53,-16.55s-4.4,-16.54 0.34,-23.14" fill="#f2f2f2" id="svg_10" transform="translate(-169.93432 -164.42601)"/>
  <circle cx="649.25" cy="51" fill="#328af1" id="svg_11" r="51"/>
  <path d="m911.22,176.3c-24.72,-3.34 -52.94,10.02 -59.34,34.12a21.6,21.6 0 0 0 -41.1,2.11l2.83,2.03a372.27,372.27 0 0 0 160.66,-0.73c-17.19,-18.07 -38.33,-34.19 -63.05,-37.53z" fill="#f0f0f0" id="svg_12" transform="translate(-169.93432 -164.42601)"/>
  <path d="m805.22,244.3c-24.72,-3.34 -52.94,10.02 -59.34,34.12a21.6,21.6 0 0 0 -41.1,2.11l2.83,2.03a372.27,372.27 0 0 0 160.66,-0.73c-17.19,-18.07 -38.33,-34.19 -63.05,-37.53z" fill="#f0f0f0" id="svg_13" transform="translate(-169.93432 -164.42601)"/>
  <path d="m1020.95,257.15a0.98,0.98 0 0 1 -0.31,-0.04c-264.4,-83.62 -497.44,-72.69 -646.38,-48.79c-20.26,3.25 -40.59,7.01 -60.4,11.16c-5.06,1.06 -10.31,2.2 -15.6,3.38c-6.32,1.41 -12.55,2.86 -18.53,4.31q-3.87,0.91 -7.59,1.84c-3.76,0.93 -7.58,1.9 -11.66,2.96c-4.57,1.18 -9.21,2.41 -13.8,3.67a0.44,0.44 0 0 1 -0.05,0.02l0,0c-5.18,1.41 -10.34,2.87 -15.32,4.32c-2.7,0.78 -5.31,1.55 -7.8,2.31c-0.28,0.08 -0.53,0.15 -0.78,0.23l-0.54,0.16c-0.31,0.1 -0.61,0.19 -0.92,0.28l-0.02,0l0,0l-0.81,0.26c-0.97,0.29 -1.91,0.57 -2.84,0.86c-24.55,7.57 -38.04,12.95 -38.17,13a1,1 0 1 1 -0.75,-1.85c0.14,-0.06 13.7,-5.47 38.33,-13.06c0.93,-0.29 1.88,-0.57 2.85,-0.87l0.75,-0.23c0.03,-0.01 0.06,-0.02 0.08,-0.03c0.31,-0.08 0.61,-0.18 0.92,-0.27l0.54,-0.16c0.27,-0.09 0.53,-0.17 0.8,-0.24c2.48,-0.75 5.09,-1.52 7.8,-2.31c4.99,-1.45 10.15,-2.91 15.33,-4.32c0.02,-0.01 0.03,-0.01 0.05,-0.02l0,0c4.61,-1.26 9.26,-2.5 13.85,-3.68c4.09,-1.07 7.91,-2.04 11.68,-2.97q3.73,-0.93 7.6,-1.85c5.99,-1.45 12.24,-2.9 18.57,-4.31c5.3,-1.19 10.55,-2.32 15.62,-3.38c19.84,-4.17 40.2,-7.93 60.5,-11.18c149.15,-23.94 382.52,-34.89 647.3,48.85a1,1 0 0 1 -0.3,1.95z" fill="#ccc" id="svg_14" transform="translate(-169.93432 -164.42601)"/>
  <path d="m263.99,419.84a6.73,6.73 0 0 0 -1.7,-2.67a6.43,6.43 0 0 0 -0.92,-0.71c-2.61,-1.74 -6.51,-2.13 -8.99,0a5.81,5.81 0 0 0 -0.69,0.71q-1.11,1.36 -2.28,2.67c-1.28,1.46 -2.59,2.87 -3.96,4.24c-0.39,0.38 -0.78,0.77 -1.18,1.15c-0.23,0.23 -0.46,0.45 -0.69,0.67c-0.88,0.84 -1.78,1.65 -2.69,2.45c-0.48,0.43 -0.96,0.85 -1.45,1.26c-0.73,0.61 -1.46,1.22 -2.2,1.81c-0.07,0.05 -0.14,0.1 -0.21,0.16c-0.02,0.01 -0.03,0.03 -0.05,0.04c-0.01,0 -0.02,0 -0.03,0.02a0.18,0.18 0 0 0 -0.07,0.05c-0.22,0.15 -0.37,0.25 -0.48,0.34c0.04,-0.02 0.08,-0.05 0.12,-0.07c-0.18,0.14 -0.37,0.28 -0.55,0.42c-1.75,1.29 -3.54,2.53 -5.37,3.69a99.21,99.21 0 0 1 -14.22,7.55c-0.33,0.13 -0.67,0.27 -1.01,0.4a85.97,85.97 0 0 1 -40.85,6.02q-2.13,-0.17 -4.26,-0.45c-1.64,-0.24 -3.27,-0.53 -4.89,-0.86a97.93,97.93 0 0 1 -18.02,-5.44a118.65,118.65 0 0 1 -20.66,-12.12c-1,-0.71 -2.01,-1.42 -3.02,-2.11c1.15,-2.82 2.28,-5.64 3.38,-8.48c0.55,-1.37 1.08,-2.74 1.6,-4.12c4.09,-10.63 7.93,-21.36 11.61,-32.13q5.58,-16.37 10.53,-32.92q0.51,-1.68 0.99,-3.36q2.6,-8.75 4.98,-17.53c0.15,-0.57 0.31,-1.13 0.45,-1.7q0.69,-2.52 1.35,-5.04c1,-3.79 -1.26,-8.32 -5.24,-9.23a7.63,7.63 0 0 0 -9.22,5.24c-0.43,1.62 -0.86,3.23 -1.3,4.85q-3.16,11.74 -6.66,23.41q-0.51,1.68 -1.02,3.36q-7.71,25.41 -16.93,50.31q-1.11,3.01 -2.25,6.01c-0.37,0.98 -0.74,1.96 -1.12,2.94c-0.73,1.93 -1.48,3.86 -2.23,5.79c-0.43,1.13 -0.87,2.26 -1.31,3.38c-0.29,0.71 -0.57,1.42 -0.85,2.12a41.81,41.81 0 0 0 -8.81,-2.12l-0.48,-0.06a27.4,27.4 0 0 0 -7.01,0.06a23.91,23.91 0 0 0 -17.24,10.66c-4.77,7.51 -4.71,18.25 1.98,24.63c6.89,6.57 17.32,6.52 25.43,2.41a28.35,28.35 0 0 0 10.52,-9.86a50.57,50.57 0 0 0 2.74,-4.65c0.21,0.14 0.42,0.28 0.63,0.43c0.8,0.56 1.6,1.13 2.39,1.69a111.74,111.74 0 0 0 14.51,8.91a108.36,108.36 0 0 0 34.62,10.47c0.27,0.03 0.53,0.07 0.8,0.1c1.33,0.17 2.67,0.3 4.01,0.41a103.78,103.78 0 0 0 55.58,-11.36q2.18,-1.13 4.31,-2.36q3.32,-1.92 6.48,-4.08c1.15,-0.78 2.27,-1.57 3.38,-2.4a101.04,101.04 0 0 0 13.51,-11.95q2.36,-2.48 4.51,-5.11a8.06,8.06 0 0 0 2.2,-5.3a7.56,7.56 0 0 0 -0.5,-2.64zm-165.59,23.82c0.21,-0.15 0.42,-0.31 0.62,-0.47c-0.06,0.15 -0.35,0.32 -0.62,0.47zm3.21,-3.23c-0.23,0.26 -0.44,0.52 -0.67,0.78a23.37,23.37 0 0 1 -2.25,2.2c-0.11,0.1 -0.23,0.2 -0.35,0.29a0.01,0.01 0 0 0 -0.01,0.01a3.8,3.8 0 0 0 -0.42,0.22q-0.64,0.39 -1.32,0.72a17,17 0 0 1 -2.71,0.75a16.8,16.8 0 0 1 -2.13,0.02l-0.02,0a14.82,14.82 0 0 1 -1.45,-0.4c-0.24,-0.12 -0.47,-0.26 -0.7,-0.4c-0.09,-0.08 -0.17,-0.16 -0.22,-0.21a2.44,2.44 0 0 1 -0.27,-0.29a0.01,0.01 0 0 0 -0.01,-0.01c-0.11,-0.2 -0.23,-0.4 -0.34,-0.6a0.03,0.03 0 0 1 -0.01,-0.02c-0.08,-0.25 -0.15,-0.51 -0.21,-0.77a12.51,12.51 0 0 1 0.01,-1.37a13.47,13.47 0 0 1 0.54,-1.88a11.07,11.07 0 0 1 0.69,-1.26c0.02,-0.04 0.12,-0.2 0.23,-0.38c0.01,-0.01 0.01,-0.01 0.01,-0.02c0.15,-0.17 0.3,-0.35 0.46,-0.51c0.27,-0.3 0.56,-0.56 0.85,-0.83a18.02,18.02 0 0 1 1.75,-1.01a19.48,19.48 0 0 1 2.93,-0.79a24.99,24.99 0 0 1 4.41,0.04a30.3,30.3 0 0 1 4.1,1.01a36.94,36.94 0 0 1 -2.77,4.54c-0.04,0.06 -0.08,0.12 -0.12,0.17zm-11.12,-3.29a2.18,2.18 0 0 1 -0.31,0.39a1.41,1.41 0 0 1 0.31,-0.39z" fill="#ffffff" id="svg_15" transform="matrix(1 0 0 1 0 0)"/>
  <path d="m233.93,317.71q-0.13,4.71 -0.27,9.42q-0.28,10.45 -0.59,20.92q-0.31,11.77 -0.66,23.54q-0.16,6.07 -0.34,12.15q-0.46,16.36 -0.92,32.72c-0.03,1.13 -0.07,2.25 -0.1,3.38q-0.22,8.11 -0.45,16.23q-0.25,8.8 -0.5,17.61q-0.18,6.6 -0.37,13.21q-1.35,47.89 -2.7,95.79a7.65,7.65 0 0 1 -7.5,7.5a7.56,7.56 0 0 1 -7.5,-7.5q0.75,-26.94 1.52,-53.88q0.68,-24.36 1.37,-48.72q0.23,-8.03 0.45,-16.06q0.35,-12.09 0.68,-24.18c0.03,-1.13 0.07,-2.25 0.1,-3.38c0.02,-0.99 0.05,-1.97 0.08,-2.96q0.66,-23.48 1.32,-46.96q0.27,-9.24 0.52,-18.49q0.3,-10.55 0.6,-21.08c0.09,-3.09 0.17,-6.17 0.26,-9.26a7.65,7.65 0 0 1 7.5,-7.5a7.56,7.56 0 0 1 7.5,7.5z" fill="#ffffff" id="svg_16" transform="matrix(1 0 0 1 0 0)"/>
  <path d="m644.36,319.79a893.24,893.24 0 0 1 -28.16,87.94c-3.01,7.94 -6.08,15.88 -9.37,23.71l0.75,-1.79a54.58,54.58 0 0 1 -5.58,10.61q-0.23,0.32 -0.47,0.64q1.16,-1.49 0.44,-0.59c-0.25,0.3 -0.5,0.6 -0.77,0.89a23.66,23.66 0 0 1 -2.25,2.21q-0.3,0.25 -0.61,0.5l0.94,-0.73c-0.11,0.26 -0.87,0.6 -1.11,0.74a18.25,18.25 0 0 1 -2.4,1.22l1.79,-0.75a19.09,19.09 0 0 1 -4.23,1.16l1.99,-0.27a17.02,17.02 0 0 1 -4.3,0.05l2,0.26a14,14 0 0 1 -3.41,-0.91l1.79,0.75a12.01,12.01 0 0 1 -1.68,-0.89c-0.27,-0.18 -1.1,-0.81 -0.01,0.02c1.13,0.87 0.14,0.08 -0.09,-0.15c-0.19,-0.2 -0.37,-0.4 -0.56,-0.6c-0.88,-0.9 1,1.56 0.4,0.5a18.18,18.18 0 0 1 -0.88,-1.64l0.76,1.79a11.92,11.92 0 0 1 -0.73,-2.65l0.27,2a13.65,13.65 0 0 1 -0.01,-3.41l-0.27,2a15.96,15.96 0 0 1 1,-3.68l-0.76,1.79a16.73,16.73 0 0 1 1.18,-2.3a6.73,6.73 0 0 1 0.73,-1.07c0.05,0.01 -1.27,1.51 -0.57,0.75c0.18,-0.19 0.35,-0.4 0.54,-0.6c0.3,-0.31 0.61,-0.6 0.92,-0.9c1.05,-0.99 -1.46,0.97 -0.25,0.18a19.05,19.05 0 0 1 2.75,-1.5l-1.79,0.76a20.31,20.31 0 0 1 4.99,-1.34l-1.99,0.27a25.63,25.63 0 0 1 6.46,0.07l-2,-0.26a33.21,33.21 0 0 1 7.9,2.22l-1.8,-0.76c5.39,2.31 10.17,5.75 14.93,9.12a111.95,111.95 0 0 0 14.51,8.9a108.39,108.39 0 0 0 34.62,10.48a103.93,103.93 0 0 0 92.59,-36.75a8.08,8.08 0 0 0 2.19,-5.31a7.63,7.63 0 0 0 -2.19,-5.3c-2.76,-2.53 -7.95,-3.24 -10.61,0a95.64,95.64 0 0 1 -8.11,8.73q-2.01,1.91 -4.14,3.71q-1.21,1.02 -2.46,2.01c-0.39,0.31 -1.62,1.14 0.26,-0.2c-0.43,0.31 -0.84,0.64 -1.27,0.96a99.27,99.27 0 0 1 -20.33,11.56l1.79,-0.76a96.84,96.84 0 0 1 -24.17,6.63l1.99,-0.27a97.64,97.64 0 0 1 -25.75,-0.04l1.99,0.27a99.8,99.8 0 0 1 -24.85,-6.77l1.79,0.75a116.03,116.03 0 0 1 -21.74,-12.59a86.88,86.88 0 0 0 -11.11,-6.99a42.82,42.82 0 0 0 -14.44,-4.39c-9.44,-1.11 -19.06,2.57 -24.24,10.72c-4.78,7.51 -4.72,18.24 1.97,24.63c6.89,6.57 17.32,6.51 25.43,2.4c7.82,-3.96 12.52,-12.18 15.82,-19.94c7.43,-17.46 14.01,-35.31 20.14,-53.26q9.1,-26.64 16.5,-53.82q0.92,-3.36 1.81,-6.74c1,-3.78 -1.27,-8.32 -5.24,-9.22a7.63,7.63 0 0 0 -9.23,5.24z" fill="#ffffff" id="svg_17" transform="matrix(1 0 0 1 0 0)"/>
  <path d="m719.19,317.71l-2.7,95.79l-2.68,95.29l-1.52,53.89a7.56,7.56 0 0 0 7.5,7.5a7.65,7.65 0 0 0 7.5,-7.5l2.7,-95.8l2.69,-95.29l1.51,-53.88a7.56,7.56 0 0 0 -7.5,-7.5a7.65,7.65 0 0 0 -7.5,7.5z" fill="#ffffff" id="svg_18" transform="matrix(1 0 0 1 0 0)"/>
  <path d="m629.53,700.36l2.32,0l0,-106.04l54.33,0l0,-2.32l-54.33,0l0,-44.75l41.96,0q-0.92,-1.17 -1.9,-2.31l-40.06,0l0,-29.56c-0.77,-0.33 -1.54,-0.64 -2.32,-0.94l0,30.5l-45.66,0l0,-37.87c-0.78,0.04 -1.55,0.09 -2.33,0.16l0,37.71l-36.42,0l0,-28.26c-0.78,0.35 -1.55,0.71 -2.31,1.1l0,27.16l-30.62,0l0,2.31l30.62,0l0,44.75l-30.62,0l0,2.32l30.62,0l0,106.04l2.31,0l0,-106.04a36.41,36.41 0 0 1 36.42,36.42l0,69.62l2.33,0l0,-106.04l45.66,0l0,106.04zm-84.41,-108.36l0,-44.75l36.42,0l0,44.75l-36.42,0zm38.75,0l0,-44.75l0.92,0a44.74,44.74 0 0 1 44.74,44.75l-45.66,0z" id="svg_19" opacity="0.2" transform="translate(-169.93432 -164.42601)"/>
  <path d="m445.37,504.14a63.06,63.06 0 0 1 -20.05,33.7c-0.74,0.64 -1.48,1.26 -2.25,1.87q-2.8,0.25 -5.57,0.52c-1.53,0.14 -3.04,0.29 -4.54,0.43l-0.27,0.03l-0.19,-1.64l-0.76,-6.64a37.62,37.62 0 0 1 -3.3,-32.44c2.64,-7.12 7.42,-13.41 12.12,-19.65c6.49,-8.62 12.8,-17.14 13.03,-27.65a60.54,60.54 0 0 1 7.9,13.33a16.43,16.43 0 0 0 -5.12,3.77c-0.41,0.45 -0.82,1.08 -0.54,1.62c0.24,0.46 0.84,0.57 1.36,0.63c1.25,0.13 2.51,0.26 3.76,0.39c1,0.11 2,0.21 3,0.32a63.99,63.99 0 0 1 2.45,12.18a61.19,61.19 0 0 1 -1.03,19.23z" fill="#ffffff" id="svg_20" transform="matrix(1 0 0 1 0 0)"/>
  <path d="m648.5,642.36c-5.9,4.29 -9.35,10.46 -12.03,17.26a16.63,16.63 0 0 0 -7.17,4.58c-0.41,0.45 -0.82,1.08 -0.54,1.62c0.24,0.46 0.84,0.57 1.36,0.63c1.25,0.13 2.51,0.26 3.76,0.39c-2.68,8.04 -5.14,16.36 -9.88,23.15a36.99,36.99 0 0 1 -12.03,10.91a38.49,38.49 0 0 1 -4.02,1.99q-7.62,0.58 -14.95,1.25q-2.8,0.25 -5.57,0.52c-1.53,0.14 -3.04,0.29 -4.54,0.43q-0.01,-0.83 0,-1.65a63.3,63.3 0 0 1 15.25,-39.86c0.45,-0.52 0.91,-1.03 1.38,-1.54a61.79,61.79 0 0 1 16.81,-12.7a62.65,62.65 0 0 1 32.17,-6.98z" fill="#328af1" id="svg_21" transform="translate(-169.93432 -164.42601)"/>
  <path d="m589.16,699.53l-1.15,3.4l-0.58,1.73c-1.53,0.14 -3.04,0.29 -4.54,0.43l-0.27,0.03c-1.66,0.17 -3.31,0.34 -4.96,0.51c-0.43,-0.5 -0.86,-1.01 -1.28,-1.53a62.03,62.03 0 0 1 8.07,-87.11c-1.32,6.91 0.22,13.53 2.75,20.1c-0.27,0.11 -0.53,0.22 -0.78,0.34a16.43,16.43 0 0 0 -5.12,3.77c-0.41,0.45 -0.82,1.08 -0.54,1.62c0.24,0.46 0.84,0.57 1.36,0.63c1.25,0.13 2.51,0.26 3.76,0.39c1,0.11 2,0.21 3,0.32q0.71,0.07 1.41,0.15c0.07,0.15 0.13,0.29 0.2,0.44c2.85,6.18 5.92,12.39 7.65,18.83a43.67,43.67 0 0 1 1.02,4.91a37.6,37.6 0 0 1 -10,31.04z" fill="#328af1" id="svg_22" transform="translate(-169.93432 -164.42601)"/>
  <path d="m520.89,390.06c-8.61,-16.8 -21.94,-30.92 -37.63,-41.31a114.24,114.24 0 0 0 -52.56,-18.38q-3.69,-0.33 -7.4,-0.39c-2.92,-0.04 -46.87,12.63 -61.59,22.98a114.29,114.29 0 0 0 -35.33,39.53a102.5,102.5 0 0 0 -12.13,51.63a113.56,113.56 0 0 0 14.7,51.48a110.48,110.48 0 0 0 36.45,38.74c15.34,9.79 30.74,35.74 48.85,36.66c18.25,0.92 39.06,-23.56 55.7,-30.99a104.43,104.43 0 0 0 41.72,-34.01a110.25,110.25 0 0 0 19.6,-48.94c2.58,-18.09 1.38,-36.74 -4.8,-54.02a111.86,111.86 0 0 0 -5.58,-12.98c-1.78,-3.51 -6.99,-4.8 -10.26,-2.69a7.68,7.68 0 0 0 -2.69,10.26q1.57,3.09 2.91,6.27l-0.75,-1.79a101.15,101.15 0 0 1 6.87,25.54l-0.26,-1.99a109.23,109.23 0 0 1 -0.07,28.68l0.27,-1.99a109.73,109.73 0 0 1 -7.56,27.67l0.76,-1.79a104.21,104.21 0 0 1 -6.67,13.1q-1.92,3.18 -4.08,6.22c-0.63,0.89 -1.28,1.76 -1.94,2.63c-0.86,1.14 1.17,-1.48 0.28,-0.37c-0.15,0.19 -0.3,0.38 -0.45,0.57q-0.68,0.85 -1.38,1.69a93.61,93.61 0 0 1 -10.18,10.38q-1.36,1.19 -2.78,2.33c-0.47,0.38 -0.93,0.78 -1.42,1.13c0.02,-0.02 1.58,-1.2 0.66,-0.51c-0.29,0.21 -0.58,0.43 -0.87,0.65q-2.91,2.15 -5.98,4.09a103.49,103.49 0 0 1 -14.75,7.71l1.79,-0.75a109.21,109.21 0 0 1 -27.6,7.55l2,-0.27a108.15,108.15 0 0 1 -28.59,0.05l1.99,0.27a99.83,99.83 0 0 1 -25.09,-6.79l1.79,0.76a93.64,93.64 0 0 1 -13.42,-6.99q-3.17,-2 -6.18,-4.25c-0.29,-0.21 -0.57,-0.43 -0.86,-0.64c-0.91,-0.69 0.66,0.51 0.67,0.51a19.17,19.17 0 0 1 -1.53,-1.22q-1.45,-1.18 -2.86,-2.42a101.99,101.99 0 0 1 -10.5,-10.71q-1.21,-1.43 -2.37,-2.91c-0.33,-0.43 -0.95,-1.29 0.4,0.53c-0.17,-0.24 -0.36,-0.48 -0.54,-0.72q-0.64,-0.85 -1.27,-1.72q-2.21,-3.05 -4.19,-6.25a109.29,109.29 0 0 1 -7.81,-15.11l0.76,1.79a106.59,106.59 0 0 1 -7.34,-26.83l0.27,1.99a97.87,97.87 0 0 1 -0.05,-25.63l-0.27,1.99a94.67,94.67 0 0 1 6.6,-23.96l-0.76,1.79a101.56,101.56 0 0 1 7.2,-13.85q2.06,-3.33 4.37,-6.49q0.53,-0.72 1.07,-1.43c0.32,-0.43 1.21,-1.49 -0.31,0.39c0.15,-0.18 0.29,-0.37 0.44,-0.56q1.27,-1.61 2.6,-3.16a107.4,107.4 0 0 1 10.88,-11.02q1.48,-1.3 3,-2.53q0.69,-0.57 1.39,-1.12c0.18,-0.14 0.37,-0.29 0.56,-0.44c-2,1.59 -0.56,0.44 -0.1,0.1q3.13,-2.35 6.43,-4.46a103.64,103.64 0 0 1 15.39,-8.11l-1.79,0.75c7.76,-3.25 42.14,-10.94 48.39,-10.11l-1.99,-0.26a106.22,106.22 0 0 1 26.72,7.38l-1.79,-0.76a110.31,110.31 0 0 1 12.6,6.33q3.04,1.79 5.96,3.76q1.39,0.94 2.74,1.92q0.68,0.49 1.35,0.99c0.25,0.18 0.49,0.37 0.74,0.56c1.04,0.78 -1.43,-1.13 -0.34,-0.27a110.84,110.84 0 0 1 10.37,9.25q2.4,2.45 4.63,5.05q1.15,1.33 2.25,2.71c0.36,0.45 1.6,2.1 0.08,0.08c0.37,0.49 0.75,0.98 1.12,1.48a97.98,97.98 0 0 1 8.39,13.54c1.79,3.5 6.99,4.8 10.26,2.69a7.68,7.68 0 0 0 2.69,-10.26z" fill="#ffffff" id="svg_23" transform="matrix(1 0 0 1 0 0)"/>
  <path d="m433.5,512.45a3.78,3.78 0 0 1 -2.74,-6.55c0.1,-0.38 0.17,-0.65 0.26,-1.03q-0.05,-0.12 -0.1,-0.25c-3.48,-8.29 -25.69,14.84 -26.65,22.64a30.03,30.03 0 0 0 0.53,10.32a120.39,120.39 0 0 1 -10.95,-50a116.2,116.2 0 0 1 0.72,-12.96q0.6,-5.3 1.66,-10.51a121.79,121.79 0 0 1 24.15,-51.62c6.87,0.38 12.9,-0.66 13.48,-13.99c0.1,-2.37 1.86,-4.42 2.25,-6.75c-0.66,0.08 -1.33,0.14 -1.98,0.18c-0.21,0.01 -0.42,0.02 -0.63,0.03l-0.07,0.01a3.75,3.75 0 0 1 -3.08,-6.1q0.42,-0.53 0.85,-1.05c0.43,-0.54 0.87,-1.06 1.3,-1.6a1.87,1.87 0 0 0 0.14,-0.16c0.5,-0.62 0.99,-1.22 1.49,-1.83a10.83,10.83 0 0 0 -3.55,-3.43c-4.96,-2.91 -11.81,-0.9 -15.39,3.59c-3.59,4.48 -4.27,10.78 -3.02,16.38a43.4,43.4 0 0 0 6,13.39c-0.27,0.34 -0.55,0.67 -0.82,1.02a122.57,122.57 0 0 0 -12.79,20.27c1.02,-7.94 -11.41,-36.61 -16.22,-42.68c-5.77,-7.3 -17.61,-4.12 -18.63,5.13q-0.01,0.14 -0.02,0.27q1.07,0.6 2.09,1.28a5.13,5.13 0 0 1 -2.06,9.33l-0.11,0.02c-9.55,13.64 21.08,49.15 28.75,41.18a125.11,125.11 0 0 0 -6.74,31.69a118.66,118.66 0 0 0 0.09,19.16l-0.03,-0.22c-1.71,-13.89 -30.94,-34.53 -39.47,-32.81c-4.92,0.99 -9.76,0.77 -9.01,5.73q0.01,0.12 0.03,0.24a34.44,34.44 0 0 1 3.86,1.86q1.08,0.6 2.1,1.28a5.13,5.13 0 0 1 -2.07,9.33l-0.1,0.02c-0.08,0.01 -0.14,0.02 -0.22,0.03c-4.35,14.96 27.91,39.12 47.52,31.43l0.01,0a125.07,125.07 0 0 0 8.4,24.53l30.02,0c0.11,-0.33 0.2,-0.68 0.3,-1.01a34.1,34.1 0 0 1 -8.3,-0.5c2.22,-2.73 4.45,-5.48 6.68,-8.21a1.86,1.86 0 0 0 0.14,-0.17c1.13,-1.39 2.27,-2.78 3.4,-4.18l0,0a49.95,49.95 0 0 0 -1.47,-12.73zm-34.37,-67.61l0.02,-0.02l-0.02,0.04l0,-0.02zm-6.65,59.93l-0.26,-0.58c0.01,-0.42 0.01,-0.84 0,-1.27c0,-0.12 -0.02,-0.24 -0.02,-0.35c0.1,0.74 0.19,1.48 0.29,2.22l-0.01,-0.02z" fill="#ffffff" id="svg_24" transform="matrix(1 0 0 1 0 0)"/>
  <circle cx="95.25" cy="439" fill="#ffffff" id="svg_25" r="11"/>
  <circle cx="228.25" cy="559" fill="#ffffff" id="svg_26" r="11" transform="matrix(1 0 0 1 0 0)"/>
  <circle cx="728.25" cy="559" fill="#ffffff" id="svg_27" r="11" transform="matrix(1 0 0 1 0 0)"/>
  <circle cx="755.25" cy="419" fill="#ffffff" id="svg_28" r="11" transform="matrix(1 0 0 1 0 0)"/>
  <circle cx="723.25" cy="317" fill="#ffffff" id="svg_29" r="11" transform="matrix(1 0 0 1 0 0)"/>
  <path d="m265.25,419a10.95,10.95 0 1 1 -0.21,-2.16a10.99,10.99 0 0 1 0.21,2.16z" fill="#ffffff" id="svg_30" transform="matrix(1 0 0 1 0 0)"/>
  <circle cx="484.25" cy="349" fill="#ffffff" id="svg_31" r="11" transform="matrix(1 0 0 1 0 0)"/>
  <path d="m375.25,349a10.95,10.95 0 1 1 -0.21,-2.16a10.99,10.99 0 0 1 0.21,2.16z" fill="#ffffff" id="svg_32" transform="matrix(1 0 0 1 0 0)"/>
  <path d="m234.25,317a10.95,10.95 0 1 1 -0.21,-2.16a10.99,10.99 0 0 1 0.21,2.16z" fill="#ffffff" id="svg_33" transform="matrix(1 0 0 1 0 0)"/>
  <circle cx="599.25" cy="443" fill="#ffffff" id="svg_34" r="11" transform="matrix(1 0 0 1 0 0)"/>
  <circle cx="426.25" cy="338" fill="#ffffff" id="svg_35" r="16" transform="matrix(1 0 0 1 0 0)"/>
  <path d="m1028.88,735.27l-857.75,0.3a1.19,1.19 0 1 1 0,-2.38l857.75,-0.3a1.19,1.19 0 0 1 0,2.38z" fill="#cacaca" id="svg_36" transform="translate(-169.93432 -164.42601)"/>
 </g>
</svg>